# xmcd CD database file
#
# Track frame offsets:
#	150
#	21478
#	43658
#	63806
#	85129
#	104232
#	128030
#	149166
#	170109
#	191599
#	210681
#	232714
#	258714
#	277042
#	297626
#	316925
#	319855
#
# Disc length: 4437 seconds
#
# Revision: 13
# Processed by: cddbd v1.5.2PL0 Copyright (c) Steve Scherf et al.
# Submitted via: CDex 1.70beta2
#
DISCID=12115311
DTITLE=女子十二樂坊  - 敦煌(Romantic Energy) 
DYEAR=2005
DGENRE=Instrumental Pop
TTITLE0=流轉(Ruten)
TTITLE1=大地輕聲(Whispering Earth)
TTITLE2=敦煌(DunHuang)
TTITLE3=從開始直到現在
TTITLE4=花(Flowers)
TTITLE5=疏勒河(River ShuLe) 
TTITLE6=莫高窟(MoGao Grottoes)
TTITLE7=浪漫的能量(Romantic Energy)
TTITLE8=雅丹天女(Fairies Of YarDan)
TTITLE9=異鄉人(IHoJin)
TTITLE10=陽關古道(YangGuan)
TTITLE11=花樣年華(Carnival)
TTITLE12=月牙泉(YueYa Spring)
TTITLE13=山鷹(El Condor Pasa)
TTITLE14=盛唐樂坊(Tang Court Ensemble) 
TTITLE15=十面埋伏(Ten-Sided Ambush)
TTITLE16=戀人們(Lovers)
EXTD=YEAR: 2005
EXTT0=
EXTT1=
EXTT2=
EXTT3=
EXTT4=
EXTT5=
EXTT6=
EXTT7=
EXTT8=
EXTT9=
EXTT10=
EXTT11=
EXTT12=
EXTT13=
EXTT14=
EXTT15=
EXTT16=
PLAYORDER=
